# xmcd
#
# Track frame offsets:
#	182
#	14705
#	24165
#	36850
#	46887
#	58745
#	71035
#	82702
#	92375
#	106417
#	122517
#	132802
#	145925
#	156037
#	165855
#	177632
#	187767
#	198495
#	212397
#	228960
#
# Disc length: 3234 seconds
#
# Revision: 4
# Processed by: cddbd v1.5.2PL0 Copyright (c) Steve Scherf et al.
# Submitted via: EasyCDDAExtractor 16.0.6.1
#
DISCID=f90ca014
DTITLE=Varios - C-046 The Big Country Album CD 1
DYEAR=1996
DGENRE=Country
TTITLE0=Loretta Lynn - Coalminer's Daughter (live)
TTITLE1=Charley Pride - Kiss An Angel Good Morning (live)
TTITLE2=Charley Pride - Help Me Make It Through The Night (live)
TTITLE3=Faron Young - Hello Walls
TTITLE4=Roy Drusky - Take These Chains From My Heart
TTITLE5=Sandy Posey - Single Girl
TTITLE6=Conway Twitty - To See My Angel Cry
TTITLE7=Ned Miller - From A Jack To A King
TTITLE8=Roger Whittaker - Summer In The Country
TTITLE9=Brenda Lee - Comin' On Strong (live)
TTITLE10=Billie Joe Spears - I'm Gonna Be A Country Girl Again
TTITLE11=Loretta Lynn - Let Your Love Flow (live)
TTITLE12=Patsy Cline - Three Cigarrettes In An Ashtray
TTITLE13=Merle Haggard - Mama Tried
TTITLE14=Party Cline - I've Loved And Lost Again
TTITLE15=Brenda Lee - I'm Sorry (live)
TTITLE16=Roger Miller - When Two Worlds Collide
TTITLE17=The Kendalls - Cryin' Time
TTITLE18=Merle Haggard - I Think I'll Just Stay Here And Drink
TTITLE19=The Kendalls - Heartaches By The Number
EXTD=
EXTT0=
EXTT1=
EXTT2=
EXTT3=
EXTT4=
EXTT5=
EXTT6=
EXTT7=
EXTT8=
EXTT9=
EXTT10=
EXTT11=
EXTT12=
EXTT13=
EXTT14=
EXTT15=
EXTT16=
EXTT17=
EXTT18=
EXTT19=
PLAYORDER=
